<?xml version="1.0" encoding="UTF-8"?>
<svg version="1.1" xmlns="http://www.w3.org/2000/svg" width="618" height="618">
<path d="M0 0 C1.05356689 0.00081573 1.05356689 0.00081573 2.12841797 0.00164795 C21.68025894 0.07106343 41.7069467 3.58846936 58.4375 14.375 C60.10544171 18.04447177 60.7086076 20.18212654 59.8125 24.125 C58.1541751 26.83862256 57.24967385 27.83199889 54.4375 29.375 C51.17278685 29.80154153 47.91393242 29.78540782 44.625 29.8125 C23.38334629 30.43297318 1.71809394 39.1108797 -16.4296875 50.11328125 C-18.5625 51.375 -18.5625 51.375 -20.5625 51.375 C-17.927927 56.34278836 -15.12035737 61.132828 -12.01171875 65.8203125 C-11.39619141 66.75230469 -10.78066406 67.68429688 -10.14648438 68.64453125 C-8.87256549 70.56262539 -7.58852871 72.47403464 -6.29492188 74.37890625 C-3.68280656 78.36480073 -1.73704084 81.46589423 -0.83203125 86.1796875 C-2.23461744 92.31506453 -5.92525301 95.11655967 -10.98828125 98.3671875 C-12.61057356 99.33924929 -14.23966934 100.3000368 -15.875 101.25 C-16.71095703 101.74757813 -17.54691406 102.24515625 -18.40820312 102.7578125 C-20.45398084 103.97358897 -22.50519488 105.17887009 -24.5625 106.375 C-24.0834611 111.65484179 -21.26672429 115.37319188 -18.4375 119.6875 C-17.33644826 121.39792836 -16.23622639 123.10889114 -15.13671875 124.8203125 C-14.55325684 125.72426758 -13.96979492 126.62822266 -13.36865234 127.55957031 C-10.28503865 132.36630634 -7.27007596 137.21568876 -4.25 142.0625 C-2.97541219 144.10426142 -1.7006711 146.14592716 -0.42578125 148.1875 C0.21149902 149.2084375 0.8487793 150.229375 1.50537109 151.28125 C3.42512772 154.35518935 5.34696258 157.42781876 7.26953125 160.5 C14.42097651 171.9292881 21.54572469 183.37443709 28.6328125 194.84375 C31.22040144 199.02960816 33.82468468 203.20484896 36.4375 207.375 C44.37904401 195.22490163 52.22875921 183.02284843 59.95361328 170.73388672 C62.44253864 166.77732258 64.94049173 162.82646588 67.4375 158.875 C68.43754286 157.29169374 69.43754287 155.70836041 70.4375 154.125 C72.4375 150.95833333 74.4375 147.79166667 76.4375 144.625 C76.93330566 143.83996094 77.42911133 143.05492187 77.93994141 142.24609375 C78.93175432 140.67575026 79.92361564 139.10543734 80.91552734 137.53515625 C83.54120449 133.37833844 86.16583704 129.22086549 88.7890625 125.0625 C89.33691406 124.19431641 89.88476562 123.32613281 90.44921875 122.43164062 C91.50161086 120.76386668 92.55370811 119.09590662 93.60546875 117.42773438 C94.31509766 116.30334961 94.31509766 116.30334961 95.0390625 115.15625 C95.66288818 114.1672168 95.66288818 114.1672168 96.29931641 113.15820312 C97.3252891 111.55080189 98.37972895 109.96165658 99.4375 108.375 C97.23023679 106.89421698 95.02172635 105.41534977 92.8125 103.9375 C91.8076355 103.26340088 91.8076355 103.26340088 90.7824707 102.57568359 C87.3498193 100.2818856 83.90302574 98.02400714 80.39453125 95.84765625 C79.76047363 95.4518335 79.12641602 95.05601074 78.47314453 94.64819336 C77.26438661 93.89723054 76.05066013 93.15419204 74.83154297 92.42016602 C69.32456853 88.9861868 69.32456853 88.9861868 68.4375 85.375 C68.47541344 78.23210753 71.1232311 74.00546996 75.125 68.25 C76.31900391 66.47482907 77.51166604 64.69875505 78.703125 62.921875 C79.6302832 61.55192383 79.6302832 61.55192383 80.57617188 60.15429688 C83.58999484 55.65411841 86.4799309 51.07710671 89.375 46.5 C90.23569092 45.14841797 90.23569092 45.14841797 91.11376953 43.76953125 C94.18833241 38.94064386 97.23676081 34.09693201 100.2578125 29.234375 C100.88437744 28.2326123 101.51094238 27.23084961 102.15649414 26.19873047 C103.35576412 24.28047026 104.54805249 22.35782153 105.73217773 20.43017578 C111.16877483 11.76224915 111.16877483 11.76224915 115.4375 9.375 C120.37858342 8.62595278 123.22565043 9.98341988 127.4375 12.5 C128.3188562 13.02255371 128.3188562 13.02255371 129.21801758 13.55566406 C137.83158359 18.72096559 146.25789598 24.20329518 154.70947266 29.62744141 C158.73363183 32.20529458 162.77122062 34.7615939 166.8125 37.3125 C167.56337891 37.7866333 168.31425781 38.2607666 169.08789062 38.74926758 C177.7334662 44.20166902 186.40390335 49.61440453 195.07421875 55.02734375 C195.99195068 55.6085498 196.90968262 56.18975586 197.85522461 56.78857422 C199.44865388 57.76750051 201.06871792 58.70607107 202.72485352 59.57470703 C208.82781468 62.86384858 211.08241096 67.22469078 214 73.375 C215.03584224 75.45603594 216.0723311 77.53675012 217.109375 79.6171875 C217.64884766 80.71772461 218.18832031 81.81826172 218.74414062 82.95214844 C221.35805746 88.23575772 224.08577902 93.45979471 226.80792236 98.68814087 C228.39107322 101.73294972 229.96463183 104.78270694 231.5390625 107.83203125 C234.21846555 113.018425 236.90123641 118.20306571 239.5859375 123.38671875 C240.60406947 125.35307024 241.6221561 127.31944519 242.64022827 129.28582764 C243.28768914 130.53612596 243.935328 131.78633213 244.5831604 133.03643799 C246.04010106 135.84800753 247.49449123 138.66083761 248.94433594 141.47607422 C249.8694168 143.27208634 250.79889983 145.06584745 251.73535156 146.85595703 C253.84699927 150.94762454 255.07177398 153.7236575 254.4375 158.375 C253.23043121 161.71765205 252.51693151 162.32204566 249.4375 164.375 C243.12592615 164.82798998 237.54493115 163.73671713 231.421875 162.28515625 C229.98573601 161.95542564 229.98573601 161.95542564 228.52058411 161.61903381 C225.40729503 160.9012313 222.29731739 160.17018589 219.1875 159.4375 C217.03383158 158.93513198 214.88010384 158.43301825 212.72631836 157.93115234 C207.31672834 156.66665375 201.91062983 155.38788128 196.50579834 154.10321045 C193.60839476 153.41555908 190.70991506 152.73266622 187.81103516 152.05126953 C183.63309501 151.06741623 179.45919275 150.06810205 175.28845215 149.0541687 C173.78090944 148.68910405 172.27237693 148.3280992 170.76281738 147.97146606 C162.69872396 146.0589624 155.39785566 144.00531147 148.4375 139.375 C147.59904541 138.8298877 146.76059082 138.28477539 145.89672852 137.72314453 C143.7281004 136.2950287 141.57671822 134.84666076 139.4375 133.375 C131.49127141 145.5322655 123.63735118 157.74171403 115.90820312 170.03808594 C114.45784408 172.34267371 113.0032292 174.64450935 111.546875 176.9453125 C105.38301068 186.68415605 99.26446288 196.45041051 93.16503906 206.22973633 C88.21909394 214.14921208 83.21923251 222.03324779 78.18017578 229.89379883 C75.42663768 234.19988138 72.70371046 238.52347109 70.03515625 242.8828125 C69.53636963 243.69637207 69.03758301 244.50993164 68.52368164 245.34814453 C67.28005162 247.2855461 67.28005162 247.2855461 67.4375 249.375 C70.3168861 251.67116116 73.31907973 253.76244352 76.32421875 255.890625 C83.06706806 261.27136799 87.03404978 268.29213499 91.5 275.5625 C92.84465197 277.73332081 94.18970849 279.90389108 95.53515625 282.07421875 C96.19789551 283.14591309 96.86063477 284.21760742 97.54345703 285.32177734 C100.14931276 289.52245171 102.79021996 293.70035585 105.4375 297.875 C110.61087217 306.04694536 115.73811707 314.24728317 120.85791016 322.45288086 C124.32097673 327.99992852 127.79915789 333.5366859 131.30371094 339.05761719 C133.23601585 342.10553114 135.15624409 345.16095131 137.07519531 348.21728516 C138.43123704 350.36508027 139.80516617 352.50071855 141.1796875 354.63671875 C142.01651624 355.96558501 142.8525013 357.29498307 143.6875 358.625 C144.07083496 359.20902588 144.45416992 359.79305176 144.84912109 360.39477539 C147.40271209 364.52206322 148.12435484 367.56701613 147.4375 372.375 C144.86423709 376.1281641 142.22363349 378.43512209 138.359375 380.79296875 C136.87630859 381.70840454 136.87630859 381.70840454 135.36328125 382.64233398 C134.31527344 383.27598877 133.26726562 383.90964355 132.1875 384.5625 C130.01524673 385.89000622 127.84337259 387.21813302 125.671875 388.546875 C124.60904297 389.19462891 123.54621094 389.84238281 122.45117188 390.50976562 C119.79326422 392.15480893 117.17833778 393.84391342 114.578125 395.578125 C113.86817383 396.04581299 113.15822266 396.51350098 112.42675781 396.99536133 C111.14602251 397.84336906 109.87369322 398.70428387 108.61230469 399.58081055 C103.93087296 402.6366355 100.85401612 403.16672867 95.4375 402.375 C90.08447151 398.57345625 86.98839298 392.15712365 83.625 386.625 C82.28509063 384.45106034 80.94390436 382.27790727 79.6015625 380.10546875 C78.56950684 378.43170166 78.56950684 378.43170166 77.51660156 376.72412109 C74.2293069 371.42878195 70.86794729 366.18178614 67.5 360.9375 C66.84427002 359.9155957 66.18854004 358.89369141 65.51293945 357.84082031 C64.17479658 355.75581839 62.83633437 353.67102138 61.49755859 351.58642578 C59.35499868 348.24638867 57.21766548 344.90306071 55.08203125 341.55859375 C54.35995988 340.42829431 53.63787345 339.2980045 52.91577148 338.16772461 C51.55665197 336.03998869 50.19805413 333.91191941 48.84008789 331.78344727 C45.10279193 325.93691217 41.31266137 320.13115068 37.4375 314.375 C33.8702881 317.61056635 31.46502236 321.28596884 29 325.375 C28.10972919 326.8252368 27.21772076 328.27440797 26.32421875 329.72265625 C25.85419434 330.48465332 25.38416992 331.24665039 24.89990234 332.03173828 C22.42651733 335.99493516 19.86880294 339.90246862 17.3125 343.8125 C13.01437127 350.39368906 8.75459108 356.99740735 4.53100586 363.62670898 C1.1791854 368.88430066 -2.18976477 374.13080803 -5.5625 379.375 C-6.22056641 380.40093262 -6.87863281 381.42686523 -7.55664062 382.48388672 C-9.44256387 385.41383677 -11.34364927 388.33331139 -13.25 391.25 C-13.81388428 392.12970459 -14.37776855 393.00940918 -14.95874023 393.91577148 C-20.21545309 401.89259691 -20.21545309 401.89259691 -24.5625 403.375 C-30.6152917 403.33960356 -34.33367541 401.00844955 -39.125 397.6875 C-40.60824873 396.68972993 -42.09268843 395.69372873 -43.578125 394.69921875 C-44.76825195 393.89750244 -44.76825195 393.89750244 -45.98242188 393.07958984 C-48.76697203 391.2399107 -51.58713409 389.46832928 -54.421875 387.70703125 C-55.40986084 387.09110107 -56.39784668 386.4751709 -57.41577148 385.84057617 C-59.35702604 384.6331578 -61.30175023 383.43129627 -63.25024414 382.2355957 C-72.29952181 376.56377911 -72.29952181 376.56377911 -74.5625 372.375 C-75.74999422 366.40087786 -73.45589633 362.89343711 -70.296875 358.05664062 C-69.68328125 357.15107422 -69.0696875 356.24550781 -68.4375 355.3125 C-67.14281079 353.34272284 -65.84855178 351.37266287 -64.5546875 349.40234375 C-63.55646973 347.89969971 -63.55646973 347.89969971 -62.53808594 346.36669922 C-59.48415705 341.74202738 -56.5257907 337.0580426 -53.5625 332.375 C-52.39373523 330.53743844 -51.22446306 328.70019951 -50.0546875 326.86328125 C-47.74651114 323.23623892 -45.43928682 319.60859364 -43.1328125 315.98046875 C-38.24338607 308.29063982 -33.34973809 300.60356122 -28.44140625 292.92578125 C-27.74861572 291.84208252 -27.0558252 290.75838379 -26.34204102 289.6418457 C-24.95838179 287.48118003 -23.57219064 285.32213346 -22.18334961 283.16479492 C-19.37998738 278.80732411 -16.58356063 274.45518835 -13.9375 270 C-8.56795945 261.03878965 -2.22771903 255.15181269 6.4375 249.375 C4.76397277 244.47050112 2.03891262 240.38691687 -0.75 236.0625 C-1.84177227 234.35196217 -2.93288747 232.64100483 -4.0234375 230.9296875 C-4.60061523 230.02573242 -5.17779297 229.12177734 -5.77246094 228.19042969 C-8.83486996 223.37377655 -11.85392007 218.53014242 -14.875 213.6875 C-16.15232518 211.64191549 -17.4296691 209.59634268 -18.70703125 207.55078125 C-19.34463379 206.52936035 -19.98223633 205.50793945 -20.63916016 204.45556641 C-23.77839222 199.42753516 -26.92053447 194.40132342 -30.0625 189.375 C-33.84915553 183.31734112 -37.63510997 177.25924953 -41.41796875 171.19921875 C-42.053396 170.18166504 -42.68882324 169.16411133 -43.34350586 168.11572266 C-44.60130721 166.10137207 -45.85864162 164.08672983 -47.11547852 162.07177734 C-50.11262798 157.27203779 -53.12466199 152.48298279 -56.171875 147.71484375 C-56.73430908 146.8328833 -57.29674316 145.95092285 -57.8762207 145.04223633 C-58.93332067 143.38720973 -59.99416839 141.73456899 -61.05932617 140.0847168 C-61.75505737 138.99477417 -61.75505737 138.99477417 -62.46484375 137.8828125 C-62.87210693 137.25004395 -63.27937012 136.61727539 -63.69897461 135.96533203 C-64.5625 134.375 -64.5625 134.375 -64.5625 132.375 C-67.43875633 134.12294129 -70.31327181 135.87372608 -73.1875 137.625 C-73.99574219 138.11613281 -74.80398437 138.60726562 -75.63671875 139.11328125 C-79.11700792 141.23540879 -82.56337081 143.3525818 -85.89453125 145.703125 C-89.91582887 148.22305968 -91.8870207 147.96871166 -96.5625 147.375 C-100.07836512 145.23490819 -102.05533703 143.21141483 -103.5625 139.375 C-103.81 140.57125 -104.0575 141.7675 -104.3125 143 C-106.29246186 150.76964342 -111.85580415 157.45420931 -118.65234375 161.671875 C-124.14262723 164.49369667 -128.7952929 165.56350013 -135 165.75 C-136.11246094 165.79898438 -137.22492188 165.84796875 -138.37109375 165.8984375 C-142.71977352 165.18519015 -143.80314704 163.80472868 -146.5625 160.375 C-148.81984231 157.12939271 -150.91751407 153.79733408 -153 150.4375 C-154.23677746 148.46732128 -155.4737629 146.49727311 -156.7109375 144.52734375 C-157.34354492 143.51526855 -157.97615234 142.50319336 -158.62792969 141.46044922 C-161.7657747 136.45589529 -164.94725512 131.47927428 -168.125 126.5 C-169.77467064 123.91178385 -171.42311261 121.32286944 -173.06542969 118.72998047 C-174.05271907 117.17691566 -175.04801083 115.62890516 -176.05175781 114.08642578 C-176.50518555 113.38243652 -176.95861328 112.67844727 -177.42578125 111.953125 C-177.82450439 111.34114258 -178.22322754 110.72916016 -178.6340332 110.09863281 C-180.32318309 106.96284575 -180.16038243 104.84271812 -179.5625 101.375 C-176.37548939 92.6984689 -171.47209626 85.92355185 -163 81.9375 C-156.08732615 79.44893741 -147.55762582 79.04329139 -140.5625 81.375 C-141.2225 80.385 -141.8825 79.395 -142.5625 78.375 C-143.19364754 72.78483607 -143.19364754 72.78483607 -142.5625 70.375 C-140.3515625 67.89453125 -140.3515625 67.89453125 -137.5625 65.375 C-136.76714844 64.65441406 -135.97179687 63.93382812 -135.15234375 63.19140625 C-98.35925532 31.92540916 -49.67414223 -0.14525461 0 0 Z " fill="#000000" transform="translate(271.5625,107.625)"/>
<path d="M0 0 C3.57083088 1.32748926 6.67665564 2.91510984 9.89453125 4.94921875 C10.8378833 5.5424292 11.78123535 6.13563965 12.75317383 6.74682617 C13.76275146 7.38724854 14.7723291 8.0276709 15.8125 8.6875 C17.9790868 10.05221014 20.14575579 11.41678979 22.3125 12.78125 C23.42109375 13.48121094 24.5296875 14.18117187 25.671875 14.90234375 C29.87349194 17.55054598 34.08629173 20.18055053 38.30053711 22.80859375 C41.28686281 24.67150715 44.27068328 26.53837282 47.25390625 28.40625 C51.0274319 30.76876091 54.80650314 33.12199385 58.58984375 35.46875 C60.31000608 36.5414899 62.03006388 37.61439744 63.75 38.6875 C64.53028564 39.16856201 65.31057129 39.64962402 66.11450195 40.14526367 C66.83468506 40.59619385 67.55486816 41.04712402 68.296875 41.51171875 C68.91916992 41.89803467 69.54146484 42.28435059 70.18261719 42.68237305 C75.39576085 46.46197223 77.78233497 50.97697202 80.59765625 56.62109375 C81.02898865 57.46982056 81.46032104 58.31854736 81.90472412 59.19299316 C83.29781197 61.93760096 84.68021926 64.68743599 86.0625 67.4375 C87.48292763 70.24383405 88.90584499 73.04889625 90.3289032 75.85389709 C91.2626963 77.69501321 92.19557435 79.53659373 93.1275177 81.37864685 C97.04422832 89.11445358 101.05303313 96.79757254 105.15454102 104.43725586 C108 109.79011702 108 109.79011702 108 112 C100.86903315 111.27466881 93.98553055 109.76911122 87 108.1875 C85.79827148 107.91760254 84.59654297 107.64770508 83.35839844 107.36962891 C75.73031582 105.64606456 68.11631534 103.88750919 60.55078125 101.90625 C58.1244604 101.28699099 55.68246035 100.72693479 53.23046875 100.21875 C43.51830414 98.05826848 36.7684137 94.09272477 28.86181641 88.34228516 C25.85400331 86.17378838 22.77368819 84.11723007 19.6875 82.0625 C19.07358398 81.65161133 18.45966797 81.24072266 17.82714844 80.81738281 C12.30832497 77.14860332 6.66703041 73.69516359 0.99975586 70.26171875 C-4.78744481 66.75334836 -10.52927426 63.17822083 -16.25 59.5625 C-17.03600586 59.06637207 -17.82201172 58.57024414 -18.63183594 58.05908203 C-22.79155291 55.42531398 -26.91650622 52.75050616 -31 50 C-26.24702371 41.69596013 -21.25828014 33.59715379 -16.0625 25.5625 C-10.61415322 17.09684873 -5.20743987 8.61625742 0 0 Z " fill="#CECDCC" transform="translate(392,138)"/>
<path d="M0 0 C1.37671875 0.00676758 1.37671875 0.00676758 2.78125 0.01367188 C5.02090391 0.02533674 7.26041545 0.04170386 9.5 0.0625 C8.02002918 3.02244164 6.02663541 3.10345984 2.9375 4.1875 C-4.47573444 6.95024639 -11.43904446 10.35816561 -18.45507812 14.00097656 C-19.82657153 14.7129218 -21.20030873 15.42056001 -22.57617188 16.12402344 C-24.59703706 17.15739868 -26.61183407 18.20171682 -28.625 19.25 C-29.22812012 19.55848877 -29.83124023 19.86697754 -30.45263672 20.18481445 C-32.16504801 21.08948004 -33.83359319 22.07565625 -35.5 23.0625 C-36.09264648 23.40361816 -36.68529297 23.74473633 -37.29589844 24.09619141 C-39.28805587 25.33499914 -39.28805587 25.33499914 -41.5 28.0625 C-42.60043203 34.83897347 -39.12112774 40.1313613 -35.375 45.4375 C-34.37610861 46.91523382 -33.37741094 48.39309861 -32.37890625 49.87109375 C-31.64438232 50.9381958 -31.64438232 50.9381958 -30.89501953 52.02685547 C-28.98142551 54.81921581 -27.14059081 57.65088107 -25.3125 60.5 C-24.76207031 61.34433594 -24.21164063 62.18867188 -23.64453125 63.05859375 C-22.5 65.0625 -22.5 65.0625 -22.5 67.0625 C-24.30639648 68.41259766 -24.30639648 68.41259766 -26.87109375 69.9765625 C-28.30279907 70.85876465 -28.30279907 70.85876465 -29.76342773 71.75878906 C-30.81087158 72.39526367 -31.85831543 73.03173828 -32.9375 73.6875 C-35.14660705 75.04822386 -37.35491552 76.41024488 -39.5625 77.7734375 C-40.13346909 78.1250293 -40.70443817 78.47662109 -41.29270935 78.83886719 C-47.38492441 82.5947186 -53.41356451 86.44826382 -59.4375 90.3125 C-60.47600098 90.97507812 -61.51450195 91.63765625 -62.58447266 92.3203125 C-67.33165836 95.35513932 -72.05201186 98.4170043 -76.7109375 101.5859375 C-77.49605713 102.11413086 -78.28117676 102.64232422 -79.09008789 103.18652344 C-80.52829919 104.15786509 -81.95789552 105.14213935 -83.37670898 106.14160156 C-87.88121814 109.16978442 -87.88121814 109.16978442 -90.73046875 108.67578125 C-93.04220408 106.56817266 -94.42233134 104.32496478 -96 101.625 C-98.89805642 96.48786032 -98.89805642 96.48786032 -103.5 93.0625 C-109.92821663 93.01540684 -114.18296451 95.96738926 -119.3125 99.4375 C-120.07498047 99.9325 -120.83746094 100.4275 -121.62304688 100.9375 C-125.00016651 103.17099734 -127.21952063 104.64178094 -129.5 108.0625 C-129.39087465 113.62789274 -127.61504252 116.86442486 -124.36328125 121.16796875 C-123.5 123.0625 -123.5 123.0625 -124.2421875 125.1875 C-125.78651289 127.48959996 -127.05511926 128.73527903 -129.5 130.0625 C-131.92529297 129.93359375 -131.92529297 129.93359375 -134.5 129.0625 C-136.27001953 127.015625 -136.27001953 127.015625 -137.8828125 124.3125 C-138.48802734 123.31895508 -139.09324219 122.32541016 -139.71679688 121.30175781 C-140.34650391 120.23280273 -140.97621094 119.16384766 -141.625 118.0625 C-142.94891708 115.86882298 -144.27445046 113.67612064 -145.6015625 111.484375 C-146.25543945 110.39705078 -146.90931641 109.30972656 -147.58300781 108.18945312 C-149.31862097 105.35836126 -151.11043404 102.58501949 -152.9609375 99.828125 C-153.73606689 98.67183594 -153.73606689 98.67183594 -154.52685547 97.4921875 C-155.48838172 96.06949835 -156.45841293 94.6525099 -157.43798828 93.2421875 C-160.55318215 88.58661755 -160.55318215 88.58661755 -160.29101562 86.00292969 C-158.97166684 82.76645309 -156.47777317 81.67049751 -153.5 80.0625 C-149.71859472 81.32296843 -149.05893684 82.79124141 -146.875 86.0625 C-144.87387211 89.21172541 -144.87387211 89.21172541 -142.5 92.0625 C-134.92507481 93.00829089 -130.73408472 90.35272397 -124.5625 86.1875 C-123.70076172 85.63191406 -122.83902344 85.07632813 -121.95117188 84.50390625 C-117.55671498 81.91628984 -117.55671498 81.91628984 -114.5 78.0625 C-113.97574317 72.96356376 -115.10531604 70.54630746 -118.0625 66.4375 C-121.48732748 61.67078105 -121.48732748 61.67078105 -121.54296875 59 C-111.21660855 39.81694884 -72.10853229 23.87211772 -53.4375 14.0625 C-52.41495117 13.52230225 -51.39240234 12.98210449 -50.33886719 12.42553711 C-41.98114837 8.10447946 -33.47115082 4.60976247 -24.3125 2.375 C-23.39082031 2.14425781 -22.46914062 1.91351563 -21.51953125 1.67578125 C-14.28700876 0.20682131 -7.35491679 -0.06948686 0 0 Z " fill="#999998" transform="translate(271.5,124.9375)"/>
<path d="M0 0 C3.99455527 0.61454696 6.74466336 2.70646737 10 5 C4.50024256 14.70203689 -1.43614628 24.10414247 -7.41943359 33.51220703 C-9.95476437 37.50278791 -12.47690035 41.50167927 -15 45.5 C-15.99993259 47.08337591 -16.99993269 48.66670918 -18 50.25 C-18.495 51.03375 -18.99 51.8175 -19.5 52.625 C-48 97.75 -48 97.75 -49.50097656 100.12646484 C-50.4978194 101.70485345 -51.49456469 103.28330366 -52.49121094 104.86181641 C-55.55851366 109.71954926 -58.62834329 114.57565895 -61.70458984 119.42773438 C-62.7310947 121.05327698 -63.75230404 122.68217625 -64.76806641 124.31445312 C-66.86352725 127.67663011 -68.96064031 130.9468578 -71.3203125 134.1328125 C-76.6149054 141.52108473 -78.10019649 148.34432575 -79.8125 157.1875 C-82.09365873 168.71980777 -85.51505535 177.01869793 -92.28222656 186.546875 C-94.96483991 190.37787258 -97.4841214 194.31283507 -100.02832031 198.23657227 C-101.84039733 201.02783473 -103.6629354 203.81153883 -105.49230957 206.59144592 C-110.07904708 213.56259794 -114.5826731 220.58471888 -119.0625 227.625 C-126.86289062 239.87146692 -134.89733597 251.95184664 -143 264 C-146.31241708 263.36064615 -148.6496628 262.13376195 -151.4765625 260.3125 C-152.311875 259.77882813 -153.1471875 259.24515625 -154.0078125 258.6953125 C-155.30332031 257.85613281 -155.30332031 257.85613281 -156.625 257 C-158.34591646 255.89515127 -160.06725035 254.79095237 -161.7890625 253.6875 C-162.54912598 253.19636719 -163.30918945 252.70523438 -164.09228516 252.19921875 C-165.97960979 250.96961484 -165.97960979 250.96961484 -168 250 C-166.71520302 246.55630419 -165.22425047 243.55986047 -163.234375 240.47265625 C-162.40510498 239.17847778 -162.40510498 239.17847778 -161.55908203 237.8581543 C-160.96208496 236.93558838 -160.36508789 236.01302246 -159.75 235.0625 C-158.47123297 233.07039029 -157.1925905 231.07820062 -155.9140625 229.0859375 C-155.26083008 228.07112305 -154.60759766 227.05630859 -153.93457031 226.01074219 C-150.98084732 221.41390828 -148.05407174 216.80006235 -145.125 212.1875 C-138.73460896 202.14313695 -132.33554675 192.10434222 -125.8984375 182.08984375 C-123.37517493 178.1616535 -120.88178448 174.21719655 -118.4140625 170.25390625 C-112.14247343 160.25051461 -106.5249551 152.51847308 -96.72265625 145.73046875 C-87.24223073 138.9678608 -82.10845003 131.64190496 -76.46435547 121.54785156 C-73.82338537 116.95279255 -70.92993909 112.51837096 -68.0625 108.0625 C-66.86786723 106.1931059 -65.67385359 104.323316 -64.48046875 102.453125 C-63.89700684 101.53982422 -63.31354492 100.62652344 -62.71240234 99.68554688 C-60.08754742 95.56900794 -57.47999925 91.44162334 -54.875 87.3125 C-54.38781494 86.54043213 -53.90062988 85.76836426 -53.39868164 84.97290039 C-52.42160334 83.42422235 -51.44463343 81.87547591 -50.46777344 80.32666016 C-47.98016643 76.38339755 -45.48993586 72.44179232 -43 68.5 C-41.99998776 66.9166744 -40.99998775 65.33334107 -40 63.75 C-22 35.25 -22 35.25 -20.49731445 32.87084961 C-19.50614358 31.30142839 -18.51509364 29.73193079 -17.52416992 28.16235352 C-14.89011605 23.99050192 -12.25343741 19.82033664 -9.61328125 15.65234375 C-8.78473633 14.34330078 -8.78473633 14.34330078 -7.93945312 13.0078125 C-6.87511529 11.3263376 -5.81004069 9.64532878 -4.74414062 7.96484375 C-4.26783203 7.21203125 -3.79152344 6.45921875 -3.30078125 5.68359375 C-2.87966064 5.01900146 -2.45854004 4.35440918 -2.0246582 3.66967773 C-0.95108838 1.97439817 -0.95108838 1.97439817 0 0 Z " fill="#A27738" transform="translate(386,225)"/>
<path d="M0 0 C9.67943233 5.22689346 14.46830544 10.7148529 20.125 20.125 C21.46047694 22.30496971 22.79641954 24.48465422 24.1328125 26.6640625 C24.78926758 27.74204102 25.44572266 28.82001953 26.12207031 29.93066406 C28.70317231 34.14928266 31.34678407 38.32651401 34 42.5 C38.52742632 49.6496183 43.01884049 56.82130599 47.5 64 C52.21462421 71.55087366 56.93753111 79.09629931 61.6875 86.625 C62.40873047 87.7696875 62.40873047 87.7696875 63.14453125 88.9375 C65.70892297 92.99656576 68.31789972 97.0176778 71 101 C69.57189259 104.51537772 67.98333825 105.98243809 64.7890625 107.98046875 C63.95632813 108.50447266 63.12359375 109.02847656 62.265625 109.56835938 C61.39421875 110.10267578 60.5228125 110.63699219 59.625 111.1875 C58.76132812 111.73341797 57.89765625 112.27933594 57.0078125 112.84179688 C49.98322125 117.21590578 49.98322125 117.21590578 46 118 C45.29617188 116.88367188 44.59234375 115.76734375 43.8671875 114.6171875 C36.53402114 102.99269551 29.16625401 91.39057736 21.78222656 79.79833984 C20.01827988 77.02870192 18.25507052 74.2585963 16.4921875 71.48828125 C15.91460693 70.58142578 15.33702637 69.67457031 14.74194336 68.74023438 C13.58602947 66.92187733 12.43316526 65.10157782 11.28344727 63.27929688 C8.25095096 58.48224397 5.16110771 53.73807634 1.97265625 49.04296875 C0.99135742 47.5724707 0.99135742 47.5724707 -0.00976562 46.07226562 C-1.26109486 44.19970911 -2.53099743 42.33938294 -3.82226562 40.49414062 C-7.12962593 35.49710942 -8.74986295 32.23321453 -7.55200195 26.25708008 C-7.36984131 25.51224365 -7.18768066 24.76740723 -7 24 C-6.70837224 22.38066822 -6.41936221 20.76086308 -6.1328125 19.140625 C-5.80136737 17.50949737 -5.46540793 15.87928072 -5.125 14.25 C-4.96386719 13.42628906 -4.80273438 12.60257812 -4.63671875 11.75390625 C-3.7104624 7.29495126 -2.68792035 3.77844803 0 0 Z " fill="#68452E" transform="translate(327,371)"/>
<path d="M0 0 C1.29589844 1.546875 1.29589844 1.546875 2.609375 3.75 C3.10872559 4.57346924 3.60807617 5.39693848 4.12255859 6.24536133 C4.92814209 7.60890747 4.92814209 7.60890747 5.75 9 C6.92367363 10.94189334 8.09818475 12.8832807 9.2734375 14.82421875 C9.88541992 15.84177246 10.49740234 16.85932617 11.12792969 17.90771484 C14.15622184 22.90984687 17.26696704 27.85967021 20.375 32.8125 C21.6447389 34.84231804 22.91426867 36.87226691 24.18359375 38.90234375 C26.69523632 42.91622928 29.20856612 46.92905341 31.72265625 50.94140625 C32.96112763 52.91915178 34.19940889 54.89701639 35.4375 56.875 C36.04843506 57.85090088 36.65937012 58.82680176 37.28881836 59.83227539 C40.62086592 65.16381285 43.93272215 70.50716781 47.21875 75.8671875 C47.74868309 76.73106583 47.74868309 76.73106583 48.2893219 77.61239624 C49.98654708 80.38001265 51.68092542 83.14930499 53.37084961 85.92138672 C53.98968018 86.93217285 54.60851074 87.94295898 55.24609375 88.984375 C55.84921387 89.97244141 56.45233398 90.96050781 57.07373047 91.97851562 C58.43183287 94.10879134 59.85439577 96.19863476 61.32080078 98.25585938 C62.07216309 99.31095703 62.82352539 100.36605469 63.59765625 101.453125 C64.64385132 102.87093262 64.64385132 102.87093262 65.71118164 104.31738281 C67 107 67 107 66.31420898 109.67089844 C64.91882513 112.14386184 63.51123737 114.59575873 62 117 C58.65846517 115.88615506 58.39768097 115.50604519 56.64453125 112.66015625 C56.19529297 111.94021484 55.74605469 111.22027344 55.28320312 110.47851562 C54.79787109 109.68123047 54.31253906 108.88394531 53.8125 108.0625 C53.29494141 107.22783203 52.77738281 106.39316406 52.24414062 105.53320312 C50.48708931 102.69425418 48.74319251 99.84747735 47 97 C45.69190314 94.87339219 44.38329435 92.74709921 43.07421875 90.62109375 C41.02365898 87.28961401 38.97397733 83.95761277 36.92724609 80.6237793 C32.50313481 73.42128393 28.03151064 66.25199089 23.50341797 59.11450195 C19.51373359 52.82421134 15.56625493 46.50822836 11.625 40.1875 C4.48747214 28.74638115 -2.73895723 17.36304944 -10 6 C-4.2 0 -4.2 0 0 0 Z " fill="#67442D" transform="translate(231,225)"/>
</svg>
